{"title":"Stella Blómkvist S01 E04 - 720p x264 - ICE (ENG SUBS) [BRSHNKV]","magnet":"magnet:?xt=urn:btih:20ab1fbadaf201f4167ef03bb89346705f837f80&dn=Stella+Blo%CC%81mkvist+S01+E04+-+720p+x264+-+ICE+%28ENG+SUBS%29+%5BBRSHNKV%5D&tr=udp%3A%2F%2Ftracker.leechers-paradise.org%3A6969&tr=udp%3A%2F%2Fzer0day.ch%3A1337&tr=udp%3A%2F%2Fopen.demonii.com%3A1337&tr=udp%3A%2F%2Ftracker.coppersurfer.tk%3A6969&tr=udp%3A%2F%2Fexodus.desync.com%3A6969","uploader":"BRSHNKV","categoryP":"video","categoryS":"hd___tv_shows","size":"616028652","seeders":"16","leechers":"7","description":"Video \r\nID : 1 \r\nFormat : AVC \r\nFormat/Info : Advanced Video Codec \r\nFormat profile : Main@L4 \r\nFormat settings, CABAC : Yes \r\nFormat settings, ReFrames : 9 frames \r\nCodec ID : avc1 \r\nCodec ID/Info : Advanced Video Coding \r\nDuration : 46mn 24s \r\nBit rate : 1 600 Kbps \r\nWidth : 1 280 pixels \r\nHeight : 720 pixels \r\nDisplay aspect ratio : 16:9 \r\nFrame rate mode : Constant \r\nFrame rate : 25.000 fps \r\nColor space : YUV \r\nChroma subsampling : 4:2:0 \r\nBit depth : 8 bits \r\nScan type : Progressive \r\nBits/(Pixel*Frame) : 0.069 \r\nStream size : 531 MiB (90%) \r\nWriting library : x264 core 148 r2708 86b7198 \r\nEncoded date : UTC 2018-06-05 06:31:59 \r\nTagged date : UTC 2018-06-05 06:31:59 \r\nColor range : Limited \r\nColor primaries : BT.709 \r\nTransfer characteristics : BT.709 \r\nMatrix coefficients : BT.709 \r\n\r\nAudio \r\nID : 2 \r\nFormat : AAC \r\nFormat/Info : Advanced Audio Codec \r\nFormat profile : LC \r\nCodec ID : 40 \r\nDuration : 46mn 24s \r\nBit rate mode : Variable \r\nBit rate : 165 Kbps \r\nChannel(s) : 2 channels \r\nChannel positions : Front: L R \r\nSampling rate : 48.0 KHz \r\nCompression mode : Lossy \r\nStream size : 54.6 MiB (9%) \r\nTitle : Stereo / Stereo \r\nLanguage : Icelandic \r\nEncoded date : UTC 2018-06-05 06:31:59 \r\nTagged date : UTC 2018-06-05 06:31:59","last_updated":"2018-06-08T12:10:14.837Z","parsed":{"xt":"urn:btih:20ab1fbadaf201f4167ef03bb89346705f837f80","dn":"Stella Blómkvist S01 E04 - 720p x264 - ICE (ENG SUBS) [BRSHNKV]","tr":["udp://exodus.desync.com:6969","udp://open.demonii.com:1337","udp://tracker.coppersurfer.tk:6969","udp://tracker.leechers-paradise.org:6969","udp://zer0day.ch:1337"],"infoHash":"20ab1fbadaf201f4167ef03bb89346705f837f80","infoHashBuffer":{"type":"Buffer","data":[32,171,31,186,218,242,1,244,22,126,240,59,184,147,70,112,95,131,127,128]},"name":"Stella Blómkvist S01 E04 - 720p x264 - ICE (ENG SUBS) [BRSHNKV]","announce":["udp://exodus.desync.com:6969","udp://open.demonii.com:1337","udp://tracker.coppersurfer.tk:6969","udp://tracker.leechers-paradise.org:6969","udp://zer0day.ch:1337"],"urlList":[]}}